<?xml version="1.0" standalone="no"?>
<!DOCTYPE svg PUBLIC "-//W3C//DTD SVG 20010904//EN"
 "http://www.w3.org/TR/2001/REC-SVG-20010904/DTD/svg10.dtd">
<svg version="1.0" xmlns="http://www.w3.org/2000/svg"
 width="500.000000pt" height="500.000000pt" viewBox="0 0 500.000000 500.000000"
 preserveAspectRatio="xMidYMid meet">
<metadata>
Created by potrace 1.11, written by Peter Selinger 2001-2013
</metadata>
<g transform="translate(0.000000,500.000000) scale(0.100000,-0.100000)"
fill="#000000" stroke="none">
<path d="M2396 3914 c-147 -45 -236 -169 -236 -327 0 -56 6 -84 26 -127 31
-68 93 -133 159 -168 44 -24 61 -27 145 -27 79 0 103 4 141 23 150 74 227 237
185 388 -54 187 -240 293 -420 238z"/>
<path d="M3501 3223 c-134 -49 -199 -220 -132 -351 26 -50 89 -105 140 -120
54 -17 135 -15 179 3 49 21 110 80 133 130 39 83 17 209 -49 278 -63 67 -182
93 -271 60z"/>
<path d="M2422 3004 c-24 -9 -69 -40 -102 -70 -67 -62 -87 -99 -260 -469 -62
-132 -188 -400 -281 -596 -92 -196 -173 -377 -180 -403 -47 -189 108 -386 305
-386 118 0 208 49 277 152 108 161 172 208 295 216 136 9 226 -40 314 -168 63
-92 146 -170 179 -170 15 0 21 35 44 253 14 138 29 286 32 327 3 41 12 136 20
210 22 206 24 250 14 250 -6 0 -7 5 -4 10 3 6 2 10 -4 10 -5 0 -13 10 -16 23
-13 41 -79 187 -188 417 -30 63 -68 144 -84 180 -81 177 -226 263 -361 214z"/>
<path d="M3545 2550 c-16 -3 -39 -12 -51 -18 -39 -21 -96 -94 -126 -161 -16
-36 -46 -102 -67 -146 -22 -44 -42 -91 -46 -105 -4 -14 -14 -32 -22 -41 -16
-19 -12 -29 164 -412 57 -125 107 -242 110 -260 l5 -32 72 0 c99 0 150 -31
228 -140 70 -99 128 -135 217 -135 159 1 278 157 229 301 -6 19 -69 158 -141
309 -71 151 -155 331 -187 400 -100 217 -161 334 -193 368 -55 58 -131 86
-192 72z"/>
</g>
</svg>
